<svg xmlns="http://www.w3.org/2000/svg" version="1.1" xmlns:xlink="http://www.w3.org/1999/xlink" width="39" height="29"><svg xmlns="http://www.w3.org/2000/svg" version="1.1" xmlns:xlink="http://www.w3.org/1999/xlink" xmlns:svgjs="http://svgjs.dev/svgjs" width="39" height="29">
    <svg width="39" height="29" viewBox="0 0 39 29" fill="none" xmlns="http://www.w3.org/2000/svg">
        <path fill-rule="evenodd" clip-rule="evenodd" d="M4.93457 0.375974C8.08571 0.223454 10.405 1.52228 11.8926 4.27246C12.1091 5.78782 11.4597 6.43723 9.94433 6.2207C9.32943 5.5557 8.71082 4.8753 8.08887 4.17968C6.83234 3.1859 5.53351 3.12411 4.19238 3.99414C3.49528 4.56674 2.93864 5.24695 2.52246 6.03515C1.20972 6.61573 0.405557 6.21384 0.110352 4.8291C0.582383 3.2115 1.5719 2.00545 3.0791 1.21093C3.70866 0.910349 4.32709 0.632028 4.93457 0.375974Z" fill="#CB6871"></path>
        <path fill-rule="evenodd" clip-rule="evenodd" d="M31.6533 0.375974C34.8045 0.223454 37.1238 1.52228 38.6113 4.27246C38.8279 5.78782 38.1784 6.43723 36.6631 6.2207C36.0482 5.5557 35.4296 4.8753 34.8076 4.17968C33.5511 3.1859 32.2523 3.12411 30.9111 3.99414C30.214 4.56674 29.6574 5.24695 29.2412 6.03515C27.9285 6.61573 27.1243 6.21384 26.8291 4.8291C27.3011 3.2115 28.2907 2.00545 29.7979 1.21093C30.4274 0.910349 31.0458 0.632028 31.6533 0.375974Z" fill="#CB6871"></path>
        <path fill-rule="evenodd" clip-rule="evenodd" d="M31.0967 21.3428C30.4152 21.6211 29.7967 21.9922 29.2412 22.456C28.2903 22.8386 27.3625 23.2717 26.458 23.7549C25.5941 24.1653 24.7282 24.5364 23.8603 24.8682C20.2494 26.0302 16.724 25.8137 13.2842 24.2187C10.3854 22.8938 7.66396 21.2856 5.12011 19.3945C4.29888 18.385 4.42264 17.519 5.49121 16.7969C6.01129 16.6568 6.50615 16.7186 6.97558 16.9824C10.4967 19.9953 14.5478 21.8816 19.1289 22.6416C22.7536 22.298 26.0624 21.0919 29.0557 19.0234C30.0164 18.3885 30.9442 17.7081 31.8389 16.9824C33.5236 16.3859 34.2968 16.9735 34.1582 18.7451C34.0719 19.0106 33.9172 19.227 33.6943 19.3945C32.7826 20.0026 31.9168 20.652 31.0967 21.3428Z" fill="#CB6871"></path>
        <path fill-rule="evenodd" clip-rule="evenodd" d="M31.0967 21.3428C31.514 22.1031 31.9778 22.8453 32.4883 23.5693C33.0377 27.3497 31.3987 29.1124 27.5713 28.8574C25.8962 28.1091 24.8139 26.8411 24.3242 25.0537C24.1997 24.9142 24.0452 24.8522 23.8604 24.8682C24.7282 24.5364 25.5941 24.1653 26.458 23.7549C26.8059 25.3506 27.7336 25.8764 29.2412 25.332C29.6019 25.0125 29.7875 24.6104 29.7979 24.126C29.6641 23.5499 29.4785 22.9932 29.2412 22.4561C29.7967 21.9922 30.4152 21.6211 31.0967 21.3428Z" fill="#CB6871"></path>
    </svg>
    <style>@media (prefers-color-scheme: light) { :root { filter: none; } }
        @media (prefers-color-scheme: dark) { :root { filter: none; } }
</style>
</svg><style>@media (prefers-color-scheme: light) { :root { filter: none; } }
@media (prefers-color-scheme: dark) { :root { filter: none; } }
</style></svg>