<svg width="473" height="432" viewBox="0 0 473 432" fill="none" xmlns="http://www.w3.org/2000/svg">
<path d="M47.5561 329.808C47.5561 329.808 97.3173 392.818 182.345 395.382C267.372 397.947 343.412 344.942 406.148 303.626C468.884 262.31 489.462 193.204 458.147 136.202C426.833 79.2003 369.981 98.7059 301.711 58.6269C233.44 18.5478 221.339 -2.48828 142.192 1.11277C63.0463 4.71503 -2.46472 89.2666 0.421192 183.998C3.3071 278.729 47.5561 329.808 47.5561 329.808Z" fill="#92C51D"/>
<path opacity="0.7" d="M47.5561 329.808C47.5561 329.808 97.3173 392.818 182.345 395.382C267.372 397.947 343.412 344.942 406.148 303.626C468.884 262.31 489.462 193.204 458.147 136.202C426.833 79.2003 369.981 98.7059 301.711 58.6269C233.44 18.5478 221.339 -2.48828 142.192 1.11277C63.0463 4.71503 -2.46472 89.2666 0.421192 183.998C3.3071 278.729 47.5561 329.808 47.5561 329.808Z" fill="white"/>
<path d="M446.114 21.6778H314.936C313.936 21.6778 313.124 22.4883 313.124 23.4898V254.312C313.124 255.312 313.936 256.124 314.936 256.124H341.057C341.373 256.395 341.779 256.564 342.227 256.564C342.675 256.564 343.081 256.395 343.398 256.124H415.448C415.764 256.395 416.17 256.564 416.618 256.564C417.066 256.564 417.472 256.395 417.789 256.124H446.112C447.112 256.124 447.924 255.312 447.924 254.312V23.4898C447.926 22.4895 447.114 21.6778 446.114 21.6778ZM340.416 252.5H316.748V210.784H340.416V252.5ZM340.416 207.16H316.748V151.189H340.416V207.16ZM340.416 147.566H316.748V85.6088H340.416V147.566ZM340.416 81.9847H316.748V25.3018H340.416V81.9847ZM344.04 25.3018H370.095V81.9835H344.04V25.3018ZM344.04 85.6088H370.095V147.566H344.04V85.6088ZM344.04 151.19H370.095V207.161H344.04V151.19ZM344.04 210.784H370.095V252.5H344.04V210.784ZM414.809 252.5H390.955V210.784H414.809V252.5ZM414.809 207.16H390.955V151.189H414.809V207.16ZM414.809 147.566H390.955V85.6088H414.809V147.566ZM414.809 81.9847H390.955V25.3018H414.809V81.9847ZM444.302 252.5H418.433V210.784H444.302V252.5ZM444.302 207.16H418.433V151.189H444.302V207.16ZM444.302 147.566H418.433V85.6088H444.302V147.566ZM444.302 81.9847H418.433V25.3018H444.302V81.9847Z" fill="white" stroke="#20262C" stroke-miterlimit="10" stroke-linecap="round" stroke-linejoin="round"/>
<path d="M380.524 22.8217V254.312" stroke="#20262C" stroke-miterlimit="10" stroke-linecap="round" stroke-linejoin="round"/>
<path d="M307.955 235.636C309.504 235.636 310.76 234.38 310.76 232.831C310.76 231.282 309.504 230.026 307.955 230.026C306.406 230.026 305.15 231.282 305.15 232.831C305.15 234.38 306.406 235.636 307.955 235.636Z" fill="#20262C" stroke="#20262C" stroke-miterlimit="10" stroke-linecap="round" stroke-linejoin="round"/>
<path d="M345.821 239.039C345.821 239.039 346.683 239.47 347.547 239.902C348.41 240.333 349.273 240.98 349.273 240.98C349.273 240.98 350.352 242.49 351.431 242.49C352.51 242.49 352.941 241.843 352.941 240.764C352.941 239.686 351.215 237.097 351 236.449C350.783 235.802 349.921 231.703 349.058 231.271C348.196 230.839 346.037 230.408 346.037 230.408V227.388C346.037 227.388 339.133 226.526 335.034 232.782C330.934 239.039 331.581 244.002 331.797 245.943C332.014 247.885 333.307 253.279 333.307 253.279H349.921C349.921 253.279 350.352 251.122 348.195 246.807C346.036 242.492 345.821 243.139 345.821 239.039Z" fill="white" stroke="#20262C" stroke-miterlimit="10" stroke-linecap="round" stroke-linejoin="round"/>
<path d="M346.036 230.409C346.036 230.409 334.385 232.136 334.17 244.865" stroke="#20262C" stroke-miterlimit="10" stroke-linecap="round" stroke-linejoin="round"/>
<path d="M323.858 254.839C324.925 252.905 325.539 250.753 325.539 248.474C325.539 243.83 323.062 239.681 319.176 236.93H296.734C292.848 239.681 290.371 243.83 290.371 248.474C290.371 250.753 290.985 252.905 292.052 254.839H323.858Z" fill="white" stroke="#20262C" stroke-miterlimit="10"/>
<path d="M320.835 236.715H295.074C294.502 236.715 294.038 236.251 294.038 235.679V234.73C294.038 234.158 294.502 233.694 295.074 233.694H320.835C321.407 233.694 321.871 234.158 321.871 234.73V235.679C321.871 236.251 321.407 236.715 320.835 236.715Z" fill="#20262C" stroke="#20262C" stroke-miterlimit="10" stroke-linecap="round" stroke-linejoin="round"/>
<path opacity="0.2" d="M447.861 260.515H295.887V271.549H447.861V260.515Z" fill="black"/>
<path d="M448.187 254.312H287.351V260.034H448.187V254.312Z" fill="white" stroke="#20262C" stroke-miterlimit="10" stroke-linecap="round" stroke-linejoin="round"/>
<path d="M417.24 223.044C417.24 223.044 416.141 219.47 412.933 218.187C410.704 217.295 408.137 217.528 405.828 217.931C401.524 218.68 397.769 220.39 393.689 221.853C393.689 221.853 395.43 221.212 402.578 224.694C405.211 225.977 408.221 226.973 411.232 226.905C413.65 226.849 417.355 226.161 417.24 223.044Z" fill="#92C51D"/>
<path d="M417.628 212.544C417.628 212.544 417.608 208.805 414.908 206.65C413.032 205.152 410.507 204.634 408.18 204.353C403.844 203.826 399.755 204.379 395.425 204.602C395.425 204.602 397.277 204.49 403.115 209.889C405.265 211.877 407.86 213.7 410.762 214.505C413.092 215.151 416.838 215.562 417.628 212.544Z" fill="#92C51D"/>
<path d="M425.017 226.429C425.017 226.429 422.101 224.089 422.09 220.634C422.083 218.233 423.247 215.934 424.471 213.936C426.755 210.212 429.73 207.351 432.594 204.098C432.594 204.098 431.356 205.48 431.957 213.408C432.178 216.328 431.994 219.494 430.822 222.267C429.878 224.495 427.872 227.685 425.017 226.429Z" fill="#92C51D"/>
<path d="M435.346 232.172C435.346 232.172 434.934 228.455 437.367 226.003C439.058 224.298 441.505 223.491 443.784 222.941C448.03 221.917 452.156 221.993 456.482 221.713C456.482 221.713 454.629 221.817 449.455 227.854C447.549 230.078 445.183 232.189 442.395 233.324C440.154 234.236 436.48 235.077 435.346 232.172Z" fill="#92C51D"/>
<path d="M434.669 218.924C434.669 218.924 430.964 218.414 429.181 215.455C427.942 213.399 427.758 210.829 427.784 208.485C427.83 204.117 428.913 200.136 429.7 195.873C429.7 195.873 429.347 197.694 433.936 204.187C435.626 206.579 437.094 209.39 437.512 212.371C437.846 214.768 437.764 218.536 434.669 218.924Z" fill="#92C51D"/>
<path d="M445.33 212.271C445.33 212.271 447.995 214.895 451.427 214.501C453.813 214.228 455.96 212.804 457.801 211.354C461.233 208.652 463.727 205.364 466.623 202.14C466.623 202.14 465.395 203.531 457.451 203.859C454.525 203.979 451.403 204.533 448.785 206.021C446.683 207.218 443.749 209.582 445.33 212.271Z" fill="#92C51D"/>
<path d="M442.245 209.678C442.245 209.678 445.965 210.051 448.392 207.594C450.08 205.886 450.86 203.43 451.387 201.145C452.368 196.888 452.248 192.763 452.485 188.435C452.485 188.435 452.4 190.288 446.416 195.525C444.213 197.453 442.126 199.841 441.02 202.642C440.131 204.891 439.327 208.573 442.245 209.678Z" fill="#92C51D"/>
<path d="M428.962 245.887L422.541 230.082L415.131 211.805" stroke="#20262C" stroke-miterlimit="10" stroke-linecap="round" stroke-linejoin="round"/>
<path d="M430.444 243.171L436.866 221.19L443.781 207.607" stroke="#20262C" stroke-miterlimit="10" stroke-linecap="round" stroke-linejoin="round"/>
<path d="M432.914 234.527L439.335 230.822" stroke="#20262C" stroke-miterlimit="10" stroke-linecap="round" stroke-linejoin="round"/>
<path d="M436.866 221.19L433.655 214.028" stroke="#20262C" stroke-miterlimit="10" stroke-linecap="round" stroke-linejoin="round"/>
<path d="M440.883 214.064L448.72 210.57" stroke="#20262C" stroke-miterlimit="10" stroke-linecap="round" stroke-linejoin="round"/>
<path d="M423.776 233.045L426.492 222.178" stroke="#20262C" stroke-miterlimit="10" stroke-linecap="round" stroke-linejoin="round"/>
<path d="M420.172 224.785L413.897 221.437" stroke="#20262C" stroke-miterlimit="10" stroke-linecap="round" stroke-linejoin="round"/>
<path d="M435.371 253.791H423.788L421.306 240.701H437.854L435.371 253.791Z" fill="#20262C" stroke="#20262C" stroke-miterlimit="10" stroke-linecap="round" stroke-linejoin="round"/>
<path d="M49.8743 143.643H265.396" stroke="#20262C" stroke-miterlimit="10"/>
<path d="M49.8743 160.638H265.396" stroke="#20262C" stroke-miterlimit="10"/>
<path d="M49.8743 177.633H265.396" stroke="#20262C" stroke-miterlimit="10"/>
<path d="M49.8743 194.627H265.396" stroke="#20262C" stroke-miterlimit="10"/>
<path d="M68.4147 160.638V143.53" stroke="#20262C" stroke-miterlimit="10"/>
<path d="M90.0439 160.638V143.53" stroke="#20262C" stroke-miterlimit="10"/>
<path d="M79.2287 177.678V160.526" stroke="#20262C" stroke-miterlimit="10"/>
<path d="M61.4614 177.678V160.526" stroke="#20262C" stroke-miterlimit="10"/>
<path d="M108.832 160.638V143.53" stroke="#20262C" stroke-miterlimit="10"/>
<path d="M128.284 160.638V143.53" stroke="#20262C" stroke-miterlimit="10"/>
<path d="M119.647 177.678V160.526" stroke="#20262C" stroke-miterlimit="10"/>
<path d="M99.7031 177.678V160.526" stroke="#20262C" stroke-miterlimit="10"/>
<path d="M147.074 160.638V143.53" stroke="#20262C" stroke-miterlimit="10"/>
<path d="M166.526 160.638V143.53" stroke="#20262C" stroke-miterlimit="10"/>
<path d="M157.889 177.678V160.526" stroke="#20262C" stroke-miterlimit="10"/>
<path d="M137.945 177.678V160.526" stroke="#20262C" stroke-miterlimit="10"/>
<path d="M185.315 160.638V143.53" stroke="#20262C" stroke-miterlimit="10"/>
<path d="M204.768 160.638V143.53" stroke="#20262C" stroke-miterlimit="10"/>
<path d="M196.129 177.678V160.526" stroke="#20262C" stroke-miterlimit="10"/>
<path d="M176.185 177.678V160.526" stroke="#20262C" stroke-miterlimit="10"/>
<path d="M223.556 160.638V143.53" stroke="#20262C" stroke-miterlimit="10"/>
<path d="M243.008 160.638V143.53" stroke="#20262C" stroke-miterlimit="10"/>
<path d="M234.371 177.678V160.526" stroke="#20262C" stroke-miterlimit="10"/>
<path d="M214.427 177.678V160.526" stroke="#20262C" stroke-miterlimit="10"/>
<path d="M261.797 160.638V143.53" stroke="#20262C" stroke-miterlimit="10"/>
<path d="M270.436 177.678V160.526" stroke="#20262C" stroke-miterlimit="10"/>
<path d="M252.669 177.678V160.526" stroke="#20262C" stroke-miterlimit="10"/>
<path opacity="0.2" d="M49.8743 25.2377L38.4768 43.2079V129.852H256.468L275.368 117.046H49.8743V25.2377Z" fill="black"/>
<path d="M275.368 25.2377H49.8743V117.046H275.368V25.2377Z" stroke="#20262C" stroke-miterlimit="10"/>
<path d="M275.368 31.68H49.8743V110.602H275.368V31.68Z" stroke="#20262C" stroke-miterlimit="10"/>
<path d="M164.232 32.4857V110.602" stroke="#20262C" stroke-miterlimit="10"/>
<path d="M154.568 70.336C154.568 72.5599 152.766 74.3623 150.542 74.3623C148.318 74.3623 146.516 72.5599 146.516 70.336C146.516 68.1121 148.318 66.3097 150.542 66.3097C152.766 66.3097 154.568 68.1121 154.568 70.336Z" fill="#20262C"/>
<path d="M176.312 74.3623C178.536 74.3623 180.338 72.5596 180.338 70.336C180.338 68.1123 178.536 66.3097 176.312 66.3097C174.088 66.3097 172.286 68.1123 172.286 70.336C172.286 72.5596 174.088 74.3623 176.312 74.3623Z" fill="#20262C"/>
<path d="M272.384 179.333H241.864V230.982H272.384V179.333Z" fill="white" stroke="#20262C" stroke-miterlimit="10"/>
<path d="M271.21 203.983H243.332V226.873H271.21V203.983Z" fill="#B2B2B2" stroke="#20262C" stroke-miterlimit="10"/>
<path d="M266.662 226.58H245.313L247.447 206.441H264.527L266.662 226.58Z" fill="#B2B2B2" stroke="#20262C" stroke-miterlimit="10"/>
<path d="M267.103 223.786H245.203V226.648H267.103V223.786Z" fill="#20262C" stroke="#20262C" stroke-miterlimit="10"/>
<path d="M267.657 222.912C267.052 222.912 266.486 222.86 266.008 222.781L266.402 220.397C267.399 220.557 270.384 220.664 270.989 219.092C272 216.465 271.754 210.853 269.733 209.954C267.389 208.914 265.333 210.048 265.313 210.059L264.095 207.972C264.222 207.898 267.219 206.191 270.714 207.746C274.483 209.421 274.495 216.708 273.244 219.958C272.352 222.278 269.771 222.912 267.657 222.912Z" fill="#20262C"/>
<path d="M266.006 204.122H246.376V207.444H266.006V204.122Z" fill="#20262C" stroke="#20262C" stroke-miterlimit="10"/>
<path d="M272.678 236.264V410.388" stroke="#20262C" stroke-miterlimit="10"/>
<path d="M106.873 221.004C105.413 221.004 104.232 219.821 104.232 218.363V173.61C104.232 163.011 112.855 154.389 123.454 154.389C134.053 154.389 142.675 163.011 142.675 173.61V184.909C142.675 186.368 141.493 187.549 140.035 187.549C138.575 187.549 137.394 186.367 137.394 184.909V173.61C137.394 165.924 131.14 159.671 123.454 159.671C115.767 159.671 109.514 165.924 109.514 173.61V218.363C109.513 219.821 108.332 221.004 106.873 221.004Z" fill="#969696" stroke="#20262C" stroke-miterlimit="10"/>
<path d="M114.21 207.798H99.5364V231.568H114.21V207.798Z" fill="white" stroke="#20262C" stroke-miterlimit="10"/>
<path d="M192.017 205.636H160.195C156.826 205.636 154.096 208.367 154.096 211.735V231.625H198.118V211.735C198.118 208.367 195.386 205.636 192.017 205.636Z" fill="#20262C" stroke="#20262C" stroke-miterlimit="10" stroke-linecap="round" stroke-linejoin="round"/>
<path d="M284.709 231.275H53.7V235.384H284.709V231.275Z" fill="white" stroke="#20262C" stroke-miterlimit="10"/>
<path d="M272.146 254.758H53.9017" stroke="#20262C" stroke-miterlimit="10"/>
<path d="M428.382 410.58H440.462" stroke="#20262C" stroke-miterlimit="10"/>
<path d="M59.74 410.58H420.328" stroke="#20262C" stroke-miterlimit="10"/>
<path d="M235.914 247.213C235.914 247.213 237.821 253.89 240.683 287.85C243.545 321.809 246.597 317.994 242.21 328.678C237.822 339.361 224.085 366.262 221.032 373.702C217.98 381.142 210.921 395.451 210.54 398.885C210.158 402.32 212.447 409.569 214.737 413.576C217.026 417.583 219.888 418.918 219.507 420.063C219.125 421.208 217.217 422.161 213.21 421.779C209.203 421.398 205.769 420.063 202.718 417.201C199.665 414.339 201.001 409.379 199.093 405.563C197.185 401.747 191.842 398.695 192.224 394.307C192.606 389.92 198.52 387.629 201.382 386.485C204.243 385.34 207.869 375.038 208.822 371.795C209.776 368.551 211.302 354.243 212.829 341.27C214.356 328.297 217.598 321.81 217.598 321.81L203.289 264.003L201.382 257.706C201.382 257.706 228.281 256.752 235.914 247.213Z" fill="white" stroke="#20262C" stroke-miterlimit="10"/>
<path d="M219.505 420.063C219.887 418.918 217.025 417.583 214.736 413.576C214.572 413.29 214.41 412.954 214.247 412.636C213.373 412.956 212.434 412.996 211.493 412.431C208.631 410.714 204.815 401.365 203.098 397.74C201.894 395.199 201.722 389.48 201.727 386.282C201.611 386.356 201.494 386.439 201.38 386.484C198.519 387.629 192.604 389.918 192.223 394.306C191.841 398.695 197.183 401.746 199.091 405.562C200.999 409.378 199.664 414.338 202.716 417.2C205.769 420.062 209.203 421.398 213.209 421.778C217.216 422.162 219.124 421.208 219.505 420.063Z" fill="#92C51D" stroke="#20262C" stroke-miterlimit="10"/>
<path d="M240.683 287.85C237.821 253.89 235.914 247.213 235.914 247.213C228.283 256.752 201.382 257.705 201.382 257.705L203.289 264.001L217.598 321.809C217.598 321.809 214.354 328.296 212.829 341.269C211.889 349.254 210.95 357.735 210.144 363.84C212.806 366.447 216.962 368.848 223.221 368.815C228.22 358.111 238.519 337.662 242.21 328.676C246.597 317.994 243.544 321.809 240.683 287.85Z" fill="#20262C" stroke="#20262C" stroke-miterlimit="10"/>
<path d="M163.034 250.838C163.034 250.838 165.705 269.535 176.197 287.087C186.69 304.64 198.328 317.423 198.328 322.574C198.328 327.725 189.361 348.329 190.697 360.922C192.033 373.514 203.098 396.599 204.433 403.084C205.768 409.571 205.96 414.722 205.768 418.157C205.577 421.591 205.768 425.216 209.011 426.551C212.255 427.886 228.471 431.129 232.478 431.129C236.485 431.129 243.162 431.893 247.55 427.504C251.938 423.115 249.267 425.215 242.399 421.208C235.531 417.201 221.604 409.379 218.742 405.183C215.88 400.985 212.446 392.781 212.827 382.098C213.209 371.414 221.222 332.112 221.222 323.718C221.222 315.323 214.735 295.864 212.827 284.797C210.92 273.732 208.439 260.185 208.439 260.185C208.439 260.185 173.717 262.094 163.034 250.838Z" fill="white" stroke="#20262C" stroke-miterlimit="10"/>
<path d="M205.769 418.155C205.578 421.59 205.769 425.214 209.013 426.55C212.256 427.885 228.472 431.128 232.479 431.128C236.486 431.128 243.163 431.892 247.551 427.503C251.939 423.114 249.268 425.214 242.4 421.207C236.729 417.898 226.259 411.992 221.166 407.67C220.519 408.051 219.86 408.74 219.316 409.951C217.599 413.767 217.79 417.582 217.79 417.582L205.767 413.304C205.856 415.17 205.844 416.801 205.769 418.155Z" fill="#92C51D" stroke="#20262C" stroke-miterlimit="10"/>
<path d="M212.829 382.098C213.21 371.414 221.223 332.112 221.223 323.718C221.223 315.323 214.736 295.864 212.829 284.797C210.921 273.732 208.44 260.185 208.44 260.185C208.44 260.185 173.717 262.093 163.034 250.837C163.034 250.837 165.705 269.534 176.197 287.086C186.69 304.638 198.328 317.42 198.328 322.572C198.328 327.723 189.361 348.328 190.697 360.92C191.487 368.369 195.676 379.474 199.248 388.658C203.339 389.244 208.336 389.171 212.946 386.971C212.831 385.404 212.767 383.795 212.829 382.098Z" fill="#20262C" stroke="#20262C" stroke-miterlimit="10"/>
<path d="M216.176 360.86C216.176 360.86 222.82 324.016 222.82 317.372C222.82 310.728 210.74 272.676 210.74 272.676" stroke="white" stroke-miterlimit="10" stroke-linecap="round" stroke-linejoin="round"/>
<path d="M256.283 182.975L250.905 195.972C250.905 195.972 251.129 196.643 252.474 196.196C253.818 195.748 311.632 167.962 312.08 167.737C312.528 167.512 303.342 167.962 303.342 167.962L310.512 165.049L306.702 164.601L310.512 161.689L307.375 162.137L308.272 159.896C308.272 159.896 301.774 159.448 295.499 153.622C289.225 147.795 286.761 143.985 286.761 143.985C286.761 143.985 270.178 167.738 264.128 172.893C258.075 178.045 257.179 179.838 256.283 182.975Z" fill="white" stroke="#20262C" stroke-miterlimit="10"/>
<path d="M284.656 152.941C284.656 152.941 291.246 161.265 299.222 162.306" stroke="#20262C" stroke-miterlimit="10" stroke-linecap="round" stroke-linejoin="round"/>
<path d="M280.495 156.756C280.495 156.756 284.31 165.774 294.714 166.467" stroke="#20262C" stroke-miterlimit="10" stroke-linecap="round" stroke-linejoin="round"/>
<path d="M277.72 167.854C277.72 167.854 280.148 172.362 282.228 173.056" stroke="#20262C" stroke-miterlimit="10" stroke-linecap="round" stroke-linejoin="round"/>
<path d="M274.599 169.589C274.599 169.589 276.332 174.444 278.413 175.832" stroke="#20262C" stroke-miterlimit="10" stroke-linecap="round" stroke-linejoin="round"/>
<path d="M270.784 172.016L273.558 177.912L257.606 189.703L259.339 182.074" stroke="#20262C" stroke-miterlimit="10" stroke-linecap="round" stroke-linejoin="round"/>
<path d="M252.474 196.196C253.819 195.748 311.632 167.962 312.08 167.737C312.528 167.512 303.342 167.962 303.342 167.962L310.512 165.049L306.702 164.601L310.512 161.687L307.375 162.136L308.272 159.895C308.272 159.895 253.595 193.283 250.906 195.973C250.906 195.973 251.128 196.643 252.474 196.196Z" fill="#969696" stroke="#20262C" stroke-miterlimit="10"/>
<path d="M231.634 183.199C231.634 183.199 245.302 180.062 250.008 177.821C254.714 175.581 257.627 174.684 260.092 171.995C262.557 169.306 261.213 168.858 265.246 167.738C269.28 166.617 271.297 165.721 272.417 164.153C273.537 162.584 274.433 166.169 271.969 167.963C269.504 169.756 266.591 171.1 266.591 171.1C266.591 171.1 267.262 173.564 264.35 176.03C261.436 178.494 257.851 180.063 257.851 180.063L256.283 182.976L224.015 197.093L231.634 183.199Z" fill="white" stroke="#20262C" stroke-miterlimit="10"/>
<path d="M182.13 136.091C182.13 136.091 164.999 135.789 164.463 147.612C163.925 159.433 181.657 205.108 181.657 205.108C181.657 205.108 161.239 239.498 159.626 247.02L158.013 251.856C158.013 251.856 166.073 263.14 187.567 266.902C209.061 270.663 220.882 264.215 226.793 262.602C232.704 260.99 239.69 252.93 239.69 252.93L228.048 198.661C228.048 198.661 240.247 175.961 238.356 173.339L242.166 171.098C242.166 171.098 237.004 161.045 234.854 151.91C232.705 142.775 225.182 135.789 221.958 135.253C218.733 134.715 206.912 137.939 196.703 138.477C186.494 139.014 182.13 136.091 182.13 136.091Z" fill="#92C51D" stroke="#20262C" stroke-miterlimit="10"/>
<path d="M238.356 173.34L231.092 157.283" stroke="#20262C" stroke-miterlimit="10"/>
<path d="M203.356 203.513C202.419 203.648 201.458 203.752 200.472 203.82" stroke="#20262C" stroke-miterlimit="10" stroke-linecap="round" stroke-linejoin="round"/>
<path d="M228.86 188.116C228.86 188.116 222.026 198.407 208.56 202.376" stroke="#20262C" stroke-miterlimit="10" stroke-linecap="round" stroke-linejoin="round"/>
<path d="M224.602 135.959C222.884 135.471 219.817 134.08 218.861 131.212C217.742 127.85 220.931 121.724 220.931 121.724C220.931 121.724 231.396 123.968 233.617 123.676C235.839 123.385 235.781 122.941 236.946 118.042C238.112 113.144 239.132 107.134 239.132 107.134C239.132 107.134 241.969 102.919 242.268 101.751C242.566 100.582 239.503 99.6276 237.686 97.8325C235.868 96.0374 236.254 95.5349 235.846 92.4231C235.438 89.3125 231.249 81.5003 231.249 81.5003C231.249 81.5003 214.127 76.7396 202.774 88.3992C191.422 100.059 198.892 117.385 198.892 117.385C198.892 117.385 199.582 121.594 200.34 127.371C201.098 133.147 198.92 132.784 194.886 133.903C193.092 134.402 187.795 135.034 182.132 136.095C184.574 141.479 190.653 151.499 203.178 155.192C216.001 158.971 222.667 145.864 224.602 135.959Z" fill="white" stroke="#20262C" stroke-miterlimit="10"/>
<path d="M233.773 71.4486C233.773 71.4486 233.587 82.0947 229.843 88.0102C226.099 93.9258 221.269 95.0106 219.485 98.6346C217.699 102.259 218.534 106.895 221.393 106.295C224.253 105.694 224.996 104.466 224.996 104.466C224.996 104.466 224.898 115.779 213.665 119.738C202.431 123.698 192.371 119.368 189.888 117.658C187.404 115.95 185.972 113.651 185.972 113.651C185.972 113.651 179.999 109.463 180.042 102.902C180.086 96.343 187.655 74.7839 191.883 70.8385C196.112 66.8944 209.811 66.2276 214.429 66.9778C219.047 67.7279 224.853 67.1928 228.601 66.4752C232.349 65.7589 234.071 70.2792 233.773 71.4486Z" fill="#20262C" stroke="#20262C" stroke-miterlimit="10"/>
<path d="M226.161 81.5946C226.161 81.5946 228.343 88.1383 218.372 93.4342C208.401 98.7313 202.482 108.079 202.17 111.506C201.67 117.005 205.909 119.918 213.076 117.426" stroke="#949494" stroke-miterlimit="10" stroke-linecap="round" stroke-linejoin="round"/>
<path d="M189.176 107.801C188.615 109.208 188.538 110.649 189.083 112.129" stroke="#949494" stroke-miterlimit="10" stroke-linecap="round" stroke-linejoin="round"/>
<path d="M214.945 78.7908C214.945 78.7908 212.141 90.9421 203.417 95.9275C198.711 98.6165 194.276 101.397 191.532 104.317" stroke="#949494" stroke-miterlimit="10" stroke-linecap="round" stroke-linejoin="round"/>
<path d="M234.727 109.745C234.727 109.745 231.481 110.849 229.829 108.579" stroke="#20262C" stroke-miterlimit="10" stroke-linecap="round" stroke-linejoin="round"/>
<path d="M234.402 98.8714C234.402 100.332 234.028 101.517 233.568 101.517C233.107 101.517 232.404 100.126 232.404 98.6648C232.404 97.2043 233.106 96.2259 233.568 96.2259C234.029 96.2259 234.402 97.4097 234.402 98.8714Z" fill="#20262C"/>
<path d="M229.343 92.8217C229.343 92.8217 230.034 89.089 233.911 89.7365" stroke="#20262C" stroke-miterlimit="10" stroke-linecap="round" stroke-linejoin="round"/>
<path d="M167.994 181.406C167.994 181.406 172.924 195.075 175.389 201.798C177.855 208.52 183.904 203.142 186.818 198.212C189.731 193.283 185.249 174.908 185.249 174.908L167.994 181.406Z" fill="white" stroke="#20262C" stroke-miterlimit="10"/>
<path d="M172.256 138.18C172.256 138.18 164.408 139.951 162.391 146.673C160.375 153.396 159.479 185.216 159.479 185.216C159.479 185.216 167.994 183.423 174.268 182.078C180.542 180.734 187.938 177.373 187.938 177.373L183.904 152.276" fill="#92C51D"/>
<path d="M172.256 138.18C172.256 138.18 164.408 139.951 162.391 146.673C160.375 153.396 159.479 185.216 159.479 185.216C159.479 185.216 167.994 183.423 174.268 182.078C180.542 180.734 187.938 177.373 187.938 177.373L183.904 152.276" stroke="#20262C" stroke-miterlimit="10"/>
<path d="M244.759 151.279H239.118C236.822 151.279 234.912 149.513 234.732 147.224L233.394 130.194C233.359 129.75 233.709 129.372 234.153 129.372H249.722C250.167 129.372 250.517 129.751 250.482 130.194L249.144 147.224C248.965 149.513 247.055 151.279 244.759 151.279Z" fill="white" stroke="#20262C" stroke-miterlimit="10"/>
<path d="M240.503 126.248C240.503 126.248 238.147 123.893 241.026 119.706C243.904 115.519 248.877 114.211 248.877 111.594C248.877 108.978 247.045 107.145 244.428 107.93" stroke="#20262C" stroke-miterlimit="10" stroke-linecap="round" stroke-linejoin="round"/>
<path d="M244.165 127.294C244.165 127.294 240.764 123.631 244.688 120.229" stroke="#20262C" stroke-miterlimit="10" stroke-linecap="round" stroke-linejoin="round"/>
<path d="M171.803 191.715C173.819 196.644 177.181 207.625 179.421 209.865C181.662 212.106 184.799 207.849 193.315 195.3C201.83 182.751 216.171 154.292 216.619 153.172C217.068 152.052 220.653 153.172 227.375 152.052C234.098 150.931 234.994 150.035 235.219 146.674C235.442 143.314 233.96 136.717 233.96 136.717C233.96 136.717 234.099 135.695 234.995 135.247C235.892 134.799 235.892 132.782 235.22 130.765C234.547 128.749 224.464 134.327 222.447 137.241C220.429 140.155 215.724 145.555 215.724 145.555L176.734 188.13" fill="white"/>
<path d="M171.803 191.715C173.819 196.644 177.181 207.625 179.421 209.865C181.662 212.106 184.799 207.849 193.315 195.3C201.83 182.751 216.171 154.292 216.619 153.172C217.068 152.052 220.653 153.172 227.375 152.052C234.098 150.931 234.994 150.035 235.219 146.674C235.442 143.314 233.96 136.717 233.96 136.717C233.96 136.717 234.099 135.695 234.995 135.247C235.892 134.799 235.892 132.782 235.22 130.765C234.547 128.749 224.464 134.327 222.447 137.241C220.429 140.155 215.724 145.555 215.724 145.555L176.734 188.13" stroke="#20262C" stroke-miterlimit="10"/>
</svg>
