<svg width="511" height="139" viewBox="0 0 511 139" fill="none" xmlns="http://www.w3.org/2000/svg">
<path d="M200.508 120.218C203.525 119.549 206.51 118.468 209.543 118.277C236.356 116.686 263.249 115.938 289.981 113.568C310.922 111.707 331.733 108.223 352.513 104.883C376.357 101.049 400.347 97.6449 423.804 92.125C445.196 87.0823 466.83 81.9124 486.303 70.984C488.707 69.6319 491.078 68.232 493.385 66.7367C505.937 58.5603 502.791 48.4909 493.627 40.9666C481.802 31.2631 467.218 27.3022 452.553 23.8343C424.675 17.2328 396.329 13.8286 367.774 11.7447C319.23 8.21323 270.703 7.75192 222.078 10.2017C179.584 12.3333 137.525 17.5509 95.8217 25.5524C74.1229 29.7201 52.6178 35.0173 32.7259 44.8322C26.1275 48.0932 19.9647 52.6427 14.4634 57.5422C7.65533 63.6189 8.13931 71.3976 14.4473 78.1105C24.9821 89.3253 38.9209 95.0679 52.65 100.985C78.2046 111.993 104.937 119.518 132.169 125.117C147.77 128.314 163.628 130.255 179.342 132.864C183.165 133.5 186.924 134.502 191.006 135.409C172.227 142.392 153.803 137.541 135.557 134.646C109.841 130.557 84.6577 124.131 60.4745 114.379C42.1636 106.998 24.1916 98.8856 9.23635 85.762C-5.20261 73.0838 -1.41137 56.6991 11.6402 46.5661C30.6609 31.7881 53.6019 25.4092 76.8817 20.4302C89.4331 17.7418 102.001 15.1012 114.649 12.9218C127.265 10.7584 139.961 9.08815 152.658 7.4974C155.755 7.09972 158.998 7.83146 160.757 7.94281C164.645 7.13153 167.355 6.57478 170.049 5.9862C174.147 5.11129 178.761 5.19083 182.472 5.14311C187.957 5.06357 193.523 0.975361 199.556 4.6977C201.831 6.09756 206.284 3.8546 209.768 3.56826C218.674 2.82061 227.595 2.18431 236.517 1.59573C246.084 0.975341 255.667 0.164062 265.25 0.00498719C271.009 -0.0904574 276.768 1.21396 282.544 1.35713C286.884 1.46848 291.24 0.386788 295.579 0.450418C302.662 0.545862 309.728 1.32531 316.81 1.45257C321.328 1.53211 326.2 -0.265426 330.314 0.864003C341.107 3.80688 351.98 2.15251 362.773 2.83653C375.954 3.66372 389.15 4.80905 402.25 6.51115C431.596 10.313 461.103 13.8286 488.223 26.7136C493.466 29.2111 498.548 32.663 502.662 36.7035C515.826 49.668 513.003 66.9753 497.015 76.3766C475.526 89.0071 452.004 96.1177 427.773 100.874C396.684 106.983 365.37 112.009 334.218 117.831C305.049 123.288 275.639 125.912 246.003 125.722C232.322 125.626 218.658 124.067 204.977 123.065C203.509 122.954 202.105 122.142 200.67 121.649C200.621 121.172 200.573 120.695 200.524 120.218H200.508Z" fill="#43525B"/>
</svg>
